<svg xmlns="http://www.w3.org/2000/svg" version="1.1" xmlns:xlink="http://www.w3.org/1999/xlink" width="1000" height="1000"><g clip-path="url(#SvgjsClipPath1034)"><rect width="1000" height="1000" fill="#ffffff"></rect><g transform="matrix(17.679558011049725,0,0,17.679558011049725,100,299.95580110497235)"><svg xmlns="http://www.w3.org/2000/svg" version="1.1" xmlns:xlink="http://www.w3.org/1999/xlink" width="45.25" height="22.63"><svg xmlns="http://www.w3.org/2000/svg" viewBox="0 0 45.25 22.63"><path d="M40,45.66l5.66,5.65,5.65-5.65L45.66,40A8,8,0,0,1,57,40l5.66-5.66a16,16,0,0,0-22.63,0l-5.66-5.65-5.65,5.65L34.34,40A8,8,0,0,1,23,40l-5.66,5.66A16,16,0,0,0,40,45.66Z" transform="translate(-17.37 -28.69)"></path></svg></svg></g></g><defs><clipPath id="SvgjsClipPath1034"><rect width="1000" height="1000" x="0" y="0" rx="500" ry="500"></rect></clipPath></defs></svg>